<svg width="463" height="274" viewBox="0 0 463 274" fill="none" xmlns="http://www.w3.org/2000/svg">
<g clip-path="url(#clip0_6861_88647)">
<path d="M3.17949 272.109H62.2295V261.839H3.17949V272.109Z" stroke="white" stroke-width="2.11" stroke-miterlimit="10"/>
<path d="M3.18004 188.59H66.54V178.61H3.18004V188.59Z" stroke="white" stroke-width="2.11" stroke-miterlimit="10"/>
<path d="M28.4302 224.098H34.9902V207.438H28.4302V224.098Z" stroke="white" stroke-width="2.11" stroke-miterlimit="10"/>
<path d="M13.73 224.098H20.29L20.29 207.438H13.73L13.73 224.098Z" stroke="white" stroke-width="2.11" stroke-miterlimit="10"/>
<path d="M28.4302 247.227H34.9902V230.567H28.4302V247.227Z" stroke="white" stroke-width="2.11" stroke-miterlimit="10"/>
<path d="M43.1802 224.098H49.7402V207.438H43.1802V224.098Z" stroke="white" stroke-width="2.11" stroke-miterlimit="10"/>
<path d="M43.1802 247.227H49.7402V230.567H43.1802V247.227Z" stroke="white" stroke-width="2.11" stroke-miterlimit="10"/>
<path d="M13.73 247.227H20.29L20.29 230.567H13.73L13.73 247.227Z" stroke="white" stroke-width="2.11" stroke-miterlimit="10"/>
<path d="M3.16992 177.508V273.278" stroke="#5681F6" stroke-width="2.11" stroke-miterlimit="10"/>
<path d="M25.9704 178.43H34.9004V170.92H25.9704V178.43Z" stroke="white" stroke-width="2.11" stroke-miterlimit="10"/>
<path d="M93.9199 81.6084C93.9199 81.6084 93.9199 71.6184 104.6 73.4284C115.28 75.2484 118.68 75.9284 118.91 70.9284C119.14 65.9284 123.45 60.9384 133.45 63.8884C143.44 66.8384 153.89 70.9284 156.62 68.6584C159.35 66.3884 161.16 66.1584 159.12 59.1184C157.08 52.0784 168.43 48.2184 177.06 52.0784C185.69 55.9384 212.49 72.2984 224.3 81.3784C224.3 81.3784 93.9199 80.2384 93.9199 81.6084Z" stroke="white" stroke-width="2.11" stroke-miterlimit="10"/>
<path d="M120.13 141.849V114.489M120.13 114.489V99.1586C120.13 99.1586 115.13 101.299 110.03 99.1586C104.93 97.0186 98.81 94.4686 93.71 97.2686V114.739C93.71 114.739 101.62 110.659 108.25 113.719C108.25 113.719 116.44 117.289 120.13 114.489Z" stroke="#5681F6" stroke-width="2.29" stroke-miterlimit="10"/>
<path d="M184.11 265.217V254.677H181.04V176.048H184.11V165.458H186.49L120.62 125.787V125.688L120.55 125.737L120.48 125.688V125.787L54.61 165.458H56.99V176.048H60.06V254.677H56.99V265.217H47.71V273.188H193.37V265.217H184.09H184.11ZM97.18 254.677H94.11V265.217H72.98V254.677H69.91V171.658H72.98V165.557H94.11V168.077H97.18V254.677ZM134.1 254.677H131.03V265.217H110.09V254.677H107.02V168.077H110.09V165.557H131.03V168.077H134.1V254.677ZM171.2 254.677H168.13V265.217H147V254.677H143.93V168.077H147V165.557L171.2 168.077V254.677Z" fill="white"/>
<path d="M167.34 141.629H73.79V160.679H167.34V141.629Z" fill="white"/>
<path d="M184.43 165.457H56.5703V176.987H184.43V165.457Z" fill="#5681F6"/>
<path d="M319.41 271.609H153.95" stroke="white" stroke-width="2.91" stroke-miterlimit="10"/>
<path d="M73.64 117.039H0" stroke="white" stroke-width="1.77" stroke-miterlimit="10"/>
<path d="M53.3599 127.519C59.1478 127.519 63.8399 122.827 63.8399 117.039C63.8399 111.251 59.1478 106.559 53.3599 106.559C47.5719 106.559 42.8799 111.251 42.8799 117.039C42.8799 122.827 47.5719 127.519 53.3599 127.519Z" fill="#5681F6"/>
<path d="M73.64 86.8086H0" stroke="white" stroke-width="1.77" stroke-miterlimit="10"/>
<path d="M26.19 97.2881C31.9779 97.2881 36.67 92.5961 36.67 86.8081C36.67 81.0202 31.9779 76.3281 26.19 76.3281C20.402 76.3281 15.71 81.0202 15.71 86.8081C15.71 92.5961 20.402 97.2881 26.19 97.2881Z" fill="#5681F6"/>
<path d="M398.299 223.66C398.299 223.66 361.729 285.65 292.359 246.19" stroke="white" stroke-width="2.49" stroke-miterlimit="10"/>
<path d="M298.21 267.109L290 245.349L311.24 238.289" stroke="white" stroke-width="2.49" stroke-miterlimit="10"/>
<path d="M81.8496 36.92L94.4196 35.72C101.33 35.06 111.4 29.87 116.79 24.19L128.76 11.58C134.15 5.9 144.96 1.25 152.79 1.25H215.61C223.44 1.25 236.25 1.25 244.08 1.25H306.9C314.73 1.25 325.78 5.66 331.45 11.05L348.36 27.11C354.04 32.5 362.99 36.91 368.26 36.91H377.84" fill="#5681F6"/>
<path d="M81.8496 36.92L94.4196 35.72C101.33 35.06 111.4 29.87 116.79 24.19L128.76 11.58C134.15 5.9 144.96 1.25 152.79 1.25H215.61C223.44 1.25 236.25 1.25 244.08 1.25H306.9C314.73 1.25 325.78 5.66 331.45 11.05L348.36 27.11C354.04 32.5 362.99 36.91 368.26 36.91H377.84" stroke="#5681F6" stroke-width="2.49" stroke-miterlimit="10"/>
<path d="M409.27 198.339L369.78 39.8486C368.89 36.3786 363.96 36.3786 363.07 39.8486" stroke="white" stroke-width="2.49" stroke-miterlimit="10"/>
<path d="M363.07 39.8477L323.58 198.338" stroke="white" stroke-width="2.49" stroke-miterlimit="10"/>
<path d="M403.08 213.298H329.77C323.24 213.298 317.3 209.518 314.52 203.608L312.05 198.348H420.79L418.32 203.608C415.55 209.518 409.6 213.298 403.07 213.298H403.08Z" fill="white" stroke="white" stroke-width="2.49" stroke-miterlimit="10"/>
<path d="M178.23 273.55L180.28 267.72C182.54 261.31 188.62 257.01 195.41 257.01H212.7C215.44 257.01 217.67 254.78 217.67 252.04V247.66H242.01V252.04C242.01 254.78 244.24 257.01 246.98 257.01H264.27C271.06 257.01 277.15 261.32 279.4 267.72L281.45 273.55H178.22H178.23Z" fill="#5681F6"/>
<path d="M237.63 252.031H222.05C222.05 257.191 217.87 261.381 212.7 261.381H195.41C190.46 261.381 186.05 264.501 184.41 269.171H275.27C273.63 264.501 269.22 261.381 264.27 261.381H246.98C241.82 261.381 237.63 257.201 237.63 252.031Z" stroke="#5681F6" stroke-width="2.49" stroke-miterlimit="10"/>
<path d="M234.27 252.029H225.42L226.77 13.4688H232.92L234.27 252.029Z" fill="#5681F6" stroke="#5681F6" stroke-width="2.49" stroke-miterlimit="10"/>
<path d="M315.259 120.619C335.579 120.619 352.119 137.149 352.119 157.479C352.119 177.809 335.579 194.339 315.259 194.339H305.829C285.509 194.339 268.969 177.809 268.969 157.479C268.969 137.149 285.499 120.619 305.829 120.619H315.259ZM315.259 118.129H305.829C284.099 118.129 266.479 135.749 266.479 157.479C266.479 179.209 284.099 196.829 305.829 196.829H315.259C336.989 196.829 354.609 179.219 354.609 157.479C354.609 135.739 336.989 118.129 315.259 118.129Z" fill="black"/>
<path d="M305.829 195.579C284.819 195.579 267.729 178.489 267.729 157.479C267.729 136.469 284.819 119.379 305.829 119.379H315.259C336.269 119.379 353.369 136.469 353.369 157.479C353.369 178.489 336.279 195.579 315.259 195.579H305.829Z" fill="black"/>
<path d="M315.259 120.619C335.579 120.619 352.119 137.149 352.119 157.479C352.119 177.809 335.579 194.339 315.259 194.339H305.829C285.509 194.339 268.969 177.809 268.969 157.479C268.969 137.149 285.499 120.619 305.829 120.619H315.259ZM315.259 118.129H305.829C284.099 118.129 266.479 135.749 266.479 157.479C266.479 179.209 284.099 196.829 305.829 196.829H315.259C336.989 196.829 354.609 179.219 354.609 157.479C354.609 135.739 336.989 118.129 315.259 118.129Z" fill="#5681F6"/>
<path d="M315.259 196.829C336.989 196.829 354.609 179.219 354.609 157.479C354.609 135.749 336.989 118.129 315.259 118.129C293.529 118.129 275.909 135.749 275.909 157.479C275.909 179.219 293.529 196.829 315.259 196.829Z" fill="black" stroke="white" stroke-width="2.49" stroke-miterlimit="10"/>
<path d="M283.93 157.491C283.93 140.181 297.96 126.141 315.27 126.141C332.58 126.141 346.61 140.171 346.61 157.491C346.61 174.791 332.58 188.831 315.27 188.831C297.96 188.831 283.93 174.791 283.93 157.491Z" stroke="white" stroke-width="2.49" stroke-miterlimit="10"/>
<path d="M368.819 120.619C389.139 120.619 405.679 137.149 405.679 157.479C405.679 177.809 389.139 194.339 368.819 194.339H359.389C339.069 194.339 322.529 177.809 322.529 157.479C322.529 137.149 339.059 120.619 359.389 120.619H368.819ZM368.819 118.129H359.389C337.659 118.129 320.039 135.749 320.039 157.479C320.039 179.209 337.659 196.829 359.389 196.829H368.819C390.549 196.829 408.169 179.219 408.169 157.479C408.169 135.739 390.549 118.129 368.819 118.129Z" fill="black"/>
<path d="M359.379 195.579C338.369 195.579 321.279 178.489 321.279 157.479C321.279 136.469 338.369 119.379 359.379 119.379H368.809C389.819 119.379 406.919 136.469 406.919 157.479C406.919 178.489 389.829 195.579 368.809 195.579H359.379Z" fill="black"/>
<path d="M368.819 120.619C389.139 120.619 405.679 137.149 405.679 157.479C405.679 177.809 389.139 194.339 368.819 194.339H359.389C339.069 194.339 322.529 177.809 322.529 157.479C322.529 137.149 339.059 120.619 359.389 120.619H368.819ZM368.819 118.129H359.389C337.659 118.129 320.039 135.749 320.039 157.479C320.039 179.209 337.659 196.829 359.389 196.829H368.819C390.549 196.829 408.169 179.219 408.169 157.479C408.169 135.739 390.549 118.129 368.819 118.129Z" fill="#5681F6"/>
<path d="M368.819 196.829C390.549 196.829 408.169 179.219 408.169 157.479C408.169 135.749 390.549 118.129 368.819 118.129C347.089 118.129 329.469 135.749 329.469 157.479C329.469 179.219 347.089 196.829 368.819 196.829Z" fill="white" stroke="white" stroke-width="2.49" stroke-miterlimit="10"/>
<path d="M337.479 157.491C337.479 140.181 351.509 126.141 368.819 126.141C386.129 126.141 400.159 140.171 400.159 157.491C400.159 174.791 386.129 188.831 368.819 188.831C351.509 188.831 337.479 174.791 337.479 157.491Z" stroke="black" stroke-width="2.49" stroke-miterlimit="10"/>
<path d="M423.279 120.619C443.599 120.619 460.139 137.149 460.139 157.479C460.139 177.809 443.599 194.339 423.279 194.339H413.849C393.529 194.339 376.989 177.809 376.989 157.479C376.989 137.149 393.519 120.619 413.849 120.619H423.279ZM423.279 118.129H413.849C392.119 118.129 374.499 135.749 374.499 157.479C374.499 179.209 392.119 196.829 413.849 196.829H423.279C445.009 196.829 462.629 179.219 462.629 157.479C462.629 135.739 445.009 118.129 423.279 118.129Z" fill="black"/>
<path d="M413.849 195.579C392.839 195.579 375.749 178.489 375.749 157.479C375.749 136.469 392.839 119.379 413.849 119.379H423.279C444.289 119.379 461.389 136.469 461.389 157.479C461.389 178.489 444.299 195.579 423.279 195.579H413.849Z" fill="white"/>
<path d="M423.279 120.619C443.599 120.619 460.139 137.149 460.139 157.479C460.139 177.809 443.599 194.339 423.279 194.339H413.849C393.529 194.339 376.989 177.809 376.989 157.479C376.989 137.149 393.519 120.619 413.849 120.619H423.279ZM423.279 118.129H413.849C392.119 118.129 374.499 135.749 374.499 157.479C374.499 179.209 392.119 196.829 413.849 196.829H423.279C445.009 196.829 462.629 179.219 462.629 157.479C462.629 135.739 445.009 118.129 423.279 118.129Z" fill="black"/>
<mask id="mask0_6861_88647" style="mask-type:luminance" maskUnits="userSpaceOnUse" x="374" y="118" width="89" height="79">
<path d="M414.209 196.829C392.479 196.829 374.859 179.219 374.859 157.479C374.859 135.749 392.479 118.129 414.209 118.129H423.639C445.369 118.129 462.989 135.749 462.989 157.479C462.989 179.219 445.369 196.829 423.639 196.829H414.209Z" fill="white"/>
</mask>
<g mask="url(#mask0_6861_88647)">
<path d="M410.059 127.828H370.699" stroke="black" stroke-width="2.49" stroke-miterlimit="10"/>
<path d="M410.059 139.688H370.699" stroke="black" stroke-width="2.49" stroke-miterlimit="10"/>
<path d="M410.059 151.547H370.699" stroke="black" stroke-width="2.49" stroke-miterlimit="10"/>
<path d="M410.059 163.406H370.699" stroke="black" stroke-width="2.49" stroke-miterlimit="10"/>
<path d="M410.059 175.27H370.699" stroke="black" stroke-width="2.49" stroke-miterlimit="10"/>
<path d="M410.059 187.137H370.699" stroke="black" stroke-width="2.49" stroke-miterlimit="10"/>
</g>
<path d="M423.279 196.829C445.009 196.829 462.629 179.219 462.629 157.479C462.629 135.749 445.009 118.129 423.279 118.129C401.549 118.129 383.929 135.749 383.929 157.479C383.929 179.219 401.549 196.829 423.279 196.829Z" fill="#5681F6"/>
<path d="M391.949 157.491C391.949 140.181 405.979 126.141 423.289 126.141C440.599 126.141 454.629 140.171 454.629 157.491C454.629 174.791 440.599 188.831 423.289 188.831C405.979 188.831 391.949 174.791 391.949 157.491Z" stroke="black" stroke-width="2.49" stroke-miterlimit="10"/>
<path d="M435.069 168.44C435.069 162.39 430.159 157.48 424.109 157.48C418.059 157.48 413.149 162.39 413.149 168.44H435.069Z" fill="black"/>
<path d="M413.159 146.52C413.159 152.57 418.069 157.48 424.119 157.48C430.169 157.48 435.079 152.57 435.079 146.52H413.159Z" fill="black"/>
</g>
<defs>
<clipPath id="clip0_6861_88647">
<rect width="462.99" height="273.55" fill="white"/>
</clipPath>
</defs>
</svg>
